# xmcd CD database file
# Copyright (C) 1995-1998 Ti Kan
#
# Track frame offsets:
#	150
#	11871
#	30627
#	48288
#	62667
#	75858
#	87381
#	103066
#	116676
#	130275
#	142742
#	156991
#	171917
#	183739
#	196879
#	208168
#	225966
#	239594
#	258051
#	271804
#	288668
#	304857
#
# Disc length: 4348 seconds
#
# Revision: 4
# Processed by: cddbd v1.4PL0 Copyright (c) Steve Scherf et al.
# Submitted via: CDex 1.30Release
#
DISCID=3210fa16
DTITLE=California Love - Dj cream
DYEAR=2002
DGENRE=Country
TTITLE0=California love
TTITLE1=Comrads
TTITLE2=Knoc turn al
TTITLE3=Nate dogg nas and js
TTITLE4=Kurupt feat nate dogg
TTITLE5=E 40 Feat nate dogg
TTITLE6=Snoop doog feat nate dogg furupt and warren g
TTITLE7=Kurupt
TTITLE8=Bad azz
TTITLE9=Dj quik
TTITLE10=Dogg pound
TTITLE11=Warren g
TTITLE12=Lil mo
TTITLE13=Mack io
TTITLE14=Nwa
TTITLE15=Dr dre
TTITLE16=2 Pac
TTITLE17=Tash feat kurupt
TTITLE18=Ice cube
TTITLE19=Above the law
TTITLE20=Ice waren and dre
TTITLE21=Easy E
EXTD=ID3G:   2
EXTT0=
EXTT1=
EXTT2=
EXTT3=
EXTT4=
EXTT5=
EXTT6=
EXTT7=
EXTT8=
EXTT9=
EXTT10=
EXTT11=
EXTT12=
EXTT13=
EXTT14=
EXTT15=
EXTT16=
EXTT17=
EXTT18=
EXTT19=
EXTT20=
EXTT21=
PLAYORDER=
